# xmcd
#
# Track frame offsets:
#	150
#	18570
#	33685
#	50167
#	64780
#	80362
#	97280
#	109040
#	123745
#	142182
#	157280
#	173790
#	188345
#	204010
#	220980
#	232812
#	258247
#
# Disc length: 3455 seconds
#
# Revision: 1
# Processed by: cddbd v1.5.2PL0 Copyright (c) Steve Scherf et al.
# Submitted via: audiograbber 1.83.01
#
DISCID=f70d7d11
DTITLE=Glen Campbell - Sound Choice StarSeries - Hits Of Glen Campbell, Vol. 1
DYEAR=1900
DGENRE=Karaoke
TTITLE0=Rhinestone Cowboy (non-vocal)
TTITLE1=Gentle On My Mind (non-vocal)
TTITLE2=Southern Nights (non-vocal)
TTITLE3=Galveston (non-vocal)
TTITLE4=Faithless Love (non-vocal)
TTITLE5=Wichita Lineman (non-vocal)
TTITLE6=Try A Little Kindness (non-vocal)
TTITLE7=By The Time I Get To Phoenix (non-vocal)
TTITLE8=Rhinestone Cowboy (vocal)
TTITLE9=Gentle On My Mind (vocal)
TTITLE10=Southern Nights (vocal)
TTITLE11=Galveston (vocal)
TTITLE12=Faithless Love (vocal)
TTITLE13=Wichita Lineman (vocal)
TTITLE14=Try A Little Kindness (vocal)
TTITLE15=By The Time I Get To Phoenix (vocal)
TTITLE16=Data Track
EXTD=
EXTT0=
EXTT1=
EXTT2=
EXTT3=
EXTT4=
EXTT5=
EXTT6=
EXTT7=
EXTT8=
EXTT9=
EXTT10=
EXTT11=
EXTT12=
EXTT13=
EXTT14=
EXTT15=
EXTT16=
PLAYORDER=
